<svg width="1513" height="401" viewBox="0 0 1513 401" fill="none" xmlns="http://www.w3.org/2000/svg">
<path d="M409.168 355.449C409.168 359.103 413.733 363.562 419.763 363.562C424.882 363.562 425.998 361.178 428.239 358.604C430.394 356.129 431.482 353.37 433.497 350.941C435.48 348.55 437.951 347.033 439.932 344.631C442.453 341.574 450.034 331.172 454.372 336.017C456.371 338.249 457.033 326.554 462.847 328.204C469.25 330.02 468.926 324.898 472.029 324.898C474.913 324.898 480.194 334.588 481.996 336.067C484.151 337.834 485.721 339.439 487.96 341.225C489.363 342.344 487.06 343.729 490.393 343.729C495.113 343.729 494.161 346.652 495.337 349.138C495.903 350.334 500.6 359.244 500.909 358.554C501.401 357.457 505.226 349.845 505.226 353.195C505.226 358.403 514.767 363.06 519.038 366.467C521.661 368.56 522.889 372.521 525.002 374.881C526.418 376.463 530.779 379.77 532.85 381.091C537.845 384.279 539.44 379.315 540.855 378.186C542.93 376.531 547.318 372.738 548.702 370.774C550.144 368.73 546.604 361.122 549.801 359.956C553.569 358.582 556.588 352.227 558.905 349.639C561.4 346.852 564.555 352.363 564.555 346.434C564.555 343.729 564.555 341.025 564.555 338.32C564.555 335.127 572.028 336.534 575.149 337.419C580.369 338.899 583.406 339.222 589.197 339.222C591.938 339.222 591.688 337.816 593.592 337.469C595.805 337.065 599.017 337.419 601.283 337.419C604.611 337.419 611.896 338.258 614.31 336.718C616.455 335.349 616.884 331.805 620.431 331.159C624.352 330.444 629.067 331.773 632.988 331.058C636.972 330.332 644.996 319.291 650.724 326.601" stroke="black" stroke-width="3" stroke-linecap="round"/>
<path d="M651.48 325.635C651.48 328.575 656.591 338.156 663.409 338.156C664.58 338.156 667.816 334.035 668.431 333.348C670.57 330.959 674.941 331.921 677.613 333.248C683.692 336.265 691.784 334.12 698.096 336.253C699.609 336.764 700.758 337.523 702.334 338.056C704.555 338.806 702.683 339.881 704.06 340.76C705.595 341.74 706.973 341.157 708.298 342.763C710.039 344.874 711.918 346.944 713.635 349.074C714.719 350.42 719.285 356.556 719.285 352.229C719.285 348.924 719.285 345.618 719.285 342.313C719.285 339.874 736.183 340.96 739.768 340.96C744.557 340.96 744.509 340.302 747.537 338.256C750.873 336.002 754.3 336.453 758.838 336.453C769.432 336.453 766.575 334.563 771.865 330.343C775.057 327.797 776.341 328.568 780.733 329.191C784.287 329.695 787.006 328.339 790.622 328.339C795.437 328.339 798.747 330.142 803.335 330.142C805.031 330.142 807.272 329.894 808.907 330.193C809.938 330.381 810.767 331.845 811.811 331.845C812.587 331.845 813.587 327.29 813.929 326.737C815.165 324.742 816.885 323.012 817.853 320.927C819.574 317.222 820.637 317.522 826.643 317.522C831.133 317.522 830.366 318.51 834.02 315.919C836.804 313.944 840.419 311.394 842.182 308.707C847.226 301.017 852.972 298.59 865.411 298.59C872.206 298.59 875.98 290.484 877.418 287.271C879.414 282.814 886.38 281.388 891.309 278.557C895.09 276.385 903.719 279.659 909.987 279.659" stroke="black" stroke-width="3" stroke-linecap="round"/>
<path d="M909.23 280.625C915.487 283.819 923.637 284.231 928.301 284.231C935.263 284.231 942.708 281.656 948.469 285.333C951.289 287.132 948.44 289.591 950.51 291.243C952.424 292.77 953.778 294.751 955.846 296.401C957.948 298.078 959.477 301.187 961.811 298.655C963.011 297.352 967.467 294.164 969.266 293.246C972.508 291.591 970.784 290.541 976.329 290.541C981.812 290.541 980.339 288.484 982.372 286.034C986.102 281.538 990.51 279.112 998.225 278.822C1000.18 278.748 1007.97 278.166 1008.11 279.723C1008.23 280.977 1008.14 285.706 1011.57 285.082C1011.64 285.068 1015.33 280.908 1016.27 280.425C1019.01 279.029 1020.39 277.265 1021.53 275.216C1022.51 273.466 1027.13 272.511 1030.01 272.511C1033.69 272.511 1031.97 267.932 1032.13 266.201C1032.13 266.119 1037.49 261.98 1038.56 261.293C1040.92 259.786 1043.64 259.518 1045.94 257.887C1048.28 256.226 1048.12 253.58 1051.9 253.58C1057.03 253.58 1058.97 254.136 1058.97 250.525C1058.97 250.362 1060.63 251.545 1061.09 251.777C1062.85 252.679 1063.65 252.679 1066.03 252.679C1070.29 252.679 1071.43 247.929 1073.88 245.917C1077.01 243.349 1076.09 242.903 1078.74 245.016C1081.91 247.545 1084.35 241.488 1085.49 240.759C1087.16 239.694 1089.57 245.233 1090.12 246.819C1090.37 247.519 1091.33 249.551 1092.16 249.974C1093.91 250.865 1092.62 248.157 1093.18 247.069C1095.89 241.882 1101.33 236.298 1105.58 231.544C1110.13 226.47 1117.47 229.908 1120.41 233.296C1122.69 235.911 1125.88 246.435 1132.74 242.061C1134.65 240.838 1140.62 241.471 1140.9 240.058C1141.33 237.845 1145 236.782 1146.55 235.049C1151.3 229.739 1154.88 225.324 1161.77 220.926C1169.97 215.697 1166.54 227.004 1171.97 227.437C1177 227.838 1175.57 227.892 1180.45 226.335C1185.01 224.879 1187.03 227.055 1191.05 226.485C1195.28 225.885 1196.76 224.732 1201.64 224.732C1210.26 224.732 1200.88 225.346 1200.31 226.986C1199.55 229.153 1205.88 227.338 1205.88 230.592C1205.88 233.304 1204.68 235.755 1204.46 238.255C1204.24 240.791 1204.46 243.377 1204.46 245.917C1204.46 248.475 1206.9 249.637 1207.29 251.777C1208.06 255.964 1210.93 261.883 1213.65 265.7C1214.23 266.517 1214.35 269.252 1214.35 268.355C1214.35 266.845 1215.64 265.797 1215.77 264.398C1215.95 262.335 1218.59 260.523 1218.59 258.538C1218.59 255.005 1221.42 258.465 1221.42 254.932C1221.42 251.844 1221.42 248.755 1221.42 245.667C1221.42 244.899 1220.81 242.647 1221.73 242.061C1223.38 241.007 1225.65 243.488 1225.65 241.41C1225.65 238.247 1228.48 236.16 1228.48 232.846C1228.48 230.641 1229.63 228.856 1229.89 226.736C1230.09 225.153 1232.44 226.15 1232.72 224.732C1232.95 223.538 1236.57 218.078 1237.66 217.52C1241.55 215.536 1242.59 217.14 1245.12 213.914C1246.86 211.684 1252.89 210.098 1253.83 208.005C1254.63 206.216 1258.14 204.509 1258.14 202.646C1258.14 200.091 1258.14 197.537 1258.14 194.983C1258.14 191.111 1265.37 188.469 1268.03 185.067" stroke="black" stroke-width="3" stroke-linecap="round"/>
<path d="M1268.03 185.066C1268.03 183.782 1266.63 178.25 1268.35 177.153C1270.83 175.566 1275.75 174.625 1278.7 172.846C1280.88 171.536 1287.63 169.996 1287.81 167.938C1287.98 165.929 1289.05 164.402 1289.22 162.529C1289.4 160.586 1294.41 156.911 1296.6 155.517C1299.4 153.726 1297.7 147.499 1297.7 144.95C1297.7 141.536 1299.86 137.968 1304.05 135.885C1306.66 134.59 1312.13 128.739 1314.57 134.182C1316.24 137.914 1323.11 136.394 1325.95 134.132C1330.64 130.386 1331.72 135.039 1335.84 136.586C1339.17 137.836 1347.25 151.639 1349.96 149.908C1353.75 147.493 1356.73 142.25 1357.03 139.09C1357.3 136.075 1356.42 131.285 1360.56 129.174C1363.25 127.8 1364.37 123.185 1369.03 125.568C1370.88 126.51 1369.22 129.149 1369.82 130.476C1370.89 132.863 1373.98 128.219 1373.98 127.371C1373.98 124.334 1373.16 119.028 1377.12 116.753C1380.93 114.565 1385.95 120.989 1386.61 122.463C1387.55 124.556 1386.69 130.075 1391.63 130.075C1397.92 130.075 1398.18 125.363 1399.48 122.463C1402.24 116.293 1406.6 109.568 1407.88 103.03C1408.06 102.1 1415.83 96.7398 1416.36 96.72C1421.14 96.5402 1423.57 100.733 1427.34 98.3226C1435.62 93.0425 1431.89 85.8624 1431.89 79.1408C1431.89 77.019 1431.45 70.4651 1435.5 69.7252C1439.03 69.0825 1443.52 66.0159 1444.53 63.7653C1446.03 60.4233 1451.64 57.816 1453 53.899C1454.08 50.7977 1457.05 47.3558 1457.32 44.4333C1457.68 40.5758 1456.58 21.8959 1465.09 21.8959C1468.38 21.8959 1470.84 17.879 1473.57 16.487C1478.2 14.1195 1477.81 11.9795 1484.16 11.9795" stroke="black" stroke-width="3" stroke-linecap="round"/>
<path d="M1484.16 11.9796C1484.16 9.63267 1486.61 -0.357222 1489.1 2.5139C1491.24 4.97237 1491.81 6.23977 1492.71 8.82436C1493.1 9.93307 1496.31 14.6876 1497.19 15.3852C1499.15 16.9501 1498.41 18.6004 1500.8 20.2934C1504.2 22.704 1501.32 24.4964 1504.64 22.7975C1505.74 22.2363 1509.19 16.9592 1509.51 16.0363C1510.32 13.7113 1511 11.9357 1511 9.27511" stroke="black" stroke-width="3" stroke-linecap="round"/>
<path d="M2.07082 388.581C2.07082 387.909 1.83402 385.196 2.22643 385.847C4.23679 389.183 8.93101 392.141 11.8745 394.695C15.0548 397.455 16.6588 396.991 18.5271 393.708C19.7505 391.558 21.1458 389.481 22.9232 387.746C24.1131 386.584 26.7186 387.128 28.2919 386.151C30.0281 385.072 31.2316 385.134 32.8825 384.328C35.2446 383.175 35.9026 378.599 37.0841 376.581C37.961 375.083 40.96 375.305 42.5306 374.226C44.4548 372.904 45.5088 371.492 47.9771 371.492C53.4566 371.492 59.1299 377.38 63.6164 379.961C66.9935 381.903 70.6259 383.462 74.1982 385.011C76.5741 386.042 75.7606 382.812 77.3494 382.467C79.6614 381.965 81.788 382.999 84.0019 383.113C88.885 383.363 95.5326 385.948 99.7579 388.239C102.416 389.681 105.057 389.834 107.111 392.341C107.906 393.311 110.836 394.531 112.013 394.695C115.121 395.129 113.422 393.175 114.269 391.315C115.985 387.546 117.849 388.041 121.661 387.898C124.683 387.784 127.691 382.763 129.869 381.062C133.136 378.511 132.709 374.311 137.961 375.593C140.066 376.107 142.019 377.087 144.225 376.96C145.559 376.884 146.059 375.593 147.843 375.593C150.605 375.593 153.415 375.445 156.168 375.669C161.815 376.129 167.015 379.205 172.08 381.442C174.462 382.493 176.911 384.48 179.588 384.48C185.418 384.48 189.825 385.523 195.344 387.062C197.51 387.666 199.965 388.833 201.296 390.632C202.905 392.806 206.142 397.395 208.649 398.683C209.881 399.316 211.576 398.434 212.851 398.987C215.629 400.192 214.952 397.873 214.952 395.683C214.952 393.057 214.091 391.315 217.052 391.315C218.442 391.315 219.499 390.309 219.814 388.923C220.639 385.301 223.459 383.036 226.311 380.53C227.494 379.491 229.638 379.507 231.097 378.973C234.178 377.845 237.482 374.041 240.161 372.024C241.679 370.88 242.775 369.311 243.118 370.125C243.923 372.034 243.918 372.175 246.113 372.175C247.707 372.175 249.106 373.458 250.665 373.543C252.097 373.62 252.646 372.469 253.816 371.834C256.222 370.529 259.193 369.89 261.325 368.226C262.554 367.266 264.96 368.399 266.382 367.011C267.409 366.008 267.885 363.381 269.572 363.289C270.423 363.243 272.997 363.743 273.618 363.137C274.805 361.979 275.174 358.408 275.174 356.795C275.174 353.459 281.402 353.893 283.928 354.441C285.064 354.687 286.599 357.604 287.429 358.504C288.6 359.774 290.419 361.312 291.981 362.074C296.29 364.177 298.233 365.217 303.341 365.871C311.82 366.957 320.688 365.667 329.095 367.542C330.705 367.902 338.401 369.154 338.899 370.125" stroke="black" stroke-width="3" stroke-linecap="round"/>
<path d="M339.117 369.102C342.751 369.102 343.989 368.597 346.12 365.684C346.724 364.859 347.759 361.894 349.232 362.305C351.752 363.007 354.766 366.584 356.974 368.077C360.303 370.327 364.621 371.424 368.178 368.723C370.213 367.178 374.729 367.175 376.231 365.343C376.643 364.84 379.881 365.684 380.783 365.684C382.383 365.684 384.219 366.021 385.49 365.153C386.782 364.27 387.848 367.834 388.291 368.267C389.681 369.623 391.06 365.564 391.637 365.001C393.009 363.662 394.743 363.634 396.539 363.634C401.286 363.634 400.172 361.509 401.985 358.165C403.075 356.157 406.961 354.064 409.144 354.064" stroke="black" stroke-width="3" stroke-linecap="round"/>
</svg>
